<svg width="24" height="31" viewBox="0 0 24 31" fill="none" xmlns="http://www.w3.org/2000/svg">
<path d="M15.56 10.8C15.56 8.36 13.8 6.68 11.44 6.68C9.2 6.68 7.4 8.36 7.4 10.8C7.4 13.24 9.2 15 11.44 15C13.68 15 15.56 13.24 15.56 10.8ZM11.44 0H23.16V6.44H21C22.2 7.4 22.96 9.24 22.96 10.8C22.96 17.12 17.72 21.6 11.44 21.6C10.32 21.6 9.04 21.44 7.96 21.16C7.72 21.08 7.48 21.08 7.24 21.08C6.72 21.08 6.24 21.28 6 21.8C5.76 22.56 6 23.08 7 23.48C8.32 24 9.96 24.08 11.44 24.08C14.92 24.08 18.08 23.04 20.28 21.24L23.16 27.64C19.88 29.6 15.76 30.76 11.44 30.76C9.32 30.76 7.2 30.52 5.24 29.92C2.32 29.04 0.6 26.6 0.52 24.08C0.48 22 1.48 19.84 3.8 18.92C1.4 17.04 0 14.2 0 10.8C0 4.44 4.96 0 11.44 0Z" fill="#121212"/>
</svg>
