<svg width="264" height="150" viewBox="0 0 264 150" fill="none" xmlns="http://www.w3.org/2000/svg">
<path d="M110.129 0.74012C161.195 14.4659 145.193 93.1793 84.3107 89.2528C79.0978 89.2752 73.3703 89.2305 68.2469 89.2137C66.2781 89.113 61.9657 89.9016 63.1291 86.5681C64.7568 82.4011 66.7479 77.8818 68.4874 73.6589C70.0423 70.1632 70.9093 67.126 73.0739 64.1449C76.9444 58.5293 84.182 59.3011 90.2451 59.2564C95.1168 59.2005 100.145 57.8077 103.736 54.3791C108.798 49.815 110.554 41.4699 106.812 35.5747C105.067 32.7277 102.03 30.9155 98.7635 30.2835C74.131 28.874 24.5695 30.2611 10.5808 29.7186C6.03913 29.713 0.692016 27.4813 1.34642 22.1174C1.58693 19.5669 2.80066 17.2905 4.0032 15.0755C6.96761 9.85148 9.82015 3.8108 15.419 0.958255C16.5656 0.438086 17.7178 0.108086 18.7134 0.214357C31.712 0.594696 86.5312 -0.781236 110.034 0.717747L110.135 0.734527L110.129 0.74012Z" fill="white"/>
<path d="M124.492 138.529C119.699 139.239 114.548 139.06 109.648 138.976C97.3765 138.948 90.6311 132.539 83.0131 123.824C79.1706 119.596 75.177 115.255 71.3289 111.055C68.7392 108.113 65.9817 105.54 63.778 102.33C61.2219 98.2912 65.7412 98.2017 68.5434 98.157C74.489 97.9836 81.8833 97.8102 88.914 97.6368C94.1156 97.7487 99.7368 96.4399 104.452 99.147C106.823 100.512 108.764 102.872 111.259 104.142C115.141 106.368 119.442 104.142 122.3 101.317C145.998 77.3502 187.299 34.8082 208.022 13.5763C211.266 10.2484 214.599 6.88683 218.744 4.70548C223.196 2.27802 228.359 1.74666 233.353 1.74107C239.942 1.69632 246.441 1.7131 253.053 1.69632C256.134 1.83615 259.798 1.22649 262.634 2.3731C265.279 4.00632 261.599 7.03225 260.324 8.50886C229.46 39.7414 181.856 87.7704 146.418 123.382C140.165 129.63 133.855 137.186 124.599 138.529L124.487 138.546L124.492 138.529Z" fill="#89CA05"/>
<path d="M124.492 138.529C119.699 139.239 114.548 139.06 109.648 138.976C97.3765 138.948 90.6311 132.539 83.0131 123.824C79.1706 119.596 75.177 115.255 71.3289 111.055C68.7392 108.113 65.9817 105.54 63.778 102.33C61.2219 98.2912 65.7412 98.2017 68.5434 98.157C74.489 97.9836 81.8833 97.8102 88.914 97.6368C94.1156 97.7487 99.7368 96.4399 104.452 99.147C106.823 100.512 108.764 102.872 111.259 104.142C115.141 106.368 119.442 104.142 122.3 101.317C145.998 77.3502 187.299 34.8082 208.022 13.5763C211.266 10.2484 214.599 6.88683 218.744 4.70548C223.196 2.27802 228.359 1.74666 233.353 1.74107C239.942 1.69632 246.441 1.7131 253.053 1.69632C256.134 1.83615 259.798 1.22649 262.634 2.3731C265.279 4.00632 261.599 7.03225 260.324 8.50886C229.46 39.7414 181.856 87.7704 146.418 123.382C140.165 129.63 133.855 137.186 124.599 138.529L124.487 138.546L124.492 138.529Z" fill="url(#paint0_linear_904_461)"/>
<path d="M34.7269 125.636C26.1972 130.368 14.9269 133.954 6.10637 137.628C-0.935497 140.699 -1.00262 137.584 1.49755 131.7C7.9801 114.953 14.6081 95.9141 19.407 83.5531C24.7765 68.3451 36.5559 59.2393 52.944 58.5626C56.1154 58.6129 62.0106 57.8075 64.2647 60.1958C65.3162 61.5997 64.315 63.4063 63.7501 64.8549C58.5037 77.3278 50.3599 97.7822 43.704 113.533C41.7967 118.17 39.235 122.924 34.8164 125.575L34.7269 125.631V125.636Z" fill="white"/>
<defs>
<linearGradient id="paint0_linear_904_461" x1="63.0222" y1="70.3582" x2="263.568" y2="70.3582" gradientUnits="userSpaceOnUse">
<stop stop-color="#D9FF00"/>
<stop offset="1" stop-color="#7CFF00"/>
</linearGradient>
</defs>
</svg>
